<?xml version="1.0" encoding="utf-8"?>
<!-- Generator: Adobe Illustrator 23.0.6, SVG Export Plug-In . SVG Version: 6.00 Build 0)  -->
<svg version="1.1" id="Layer_1" xmlns="http://www.w3.org/2000/svg" xmlns:xlink="http://www.w3.org/1999/xlink" x="0px" y="0px"
	 viewBox="0 0 23.79 23.79" style="enable-background:new 0 0 23.79 23.79;" xml:space="preserve">
<style type="text/css">
	.st0{fill:#2B7B40;}
</style>
<path class="st0" d="M0,11.89c0,6.56,5.33,11.89,11.89,11.89c6.57,0,11.89-5.33,11.89-11.89S18.45,0,11.89,0
	C5.33-0.01,0,5.32,0,11.89z M13.82,4.27L13.82,4.27c0.66,0.66,0.66,1.74,0,2.4l-3.52,3.52h7.97c0.94,0,1.7,0.76,1.7,1.7
	s-0.76,1.7-1.7,1.7H10.3l3.52,3.52c0.66,0.66,0.66,1.74,0,2.4l0,0c-0.66,0.66-1.74,0.66-2.4,0l-7.6-7.62l7.6-7.62
	C12.08,3.61,13.15,3.61,13.82,4.27z"/>
</svg>
