<?xml version="1.0" encoding="utf-8"?>
<!-- Generator: Adobe Illustrator 23.0.6, SVG Export Plug-In . SVG Version: 6.00 Build 0)  -->
<svg version="1.1" id="Layer_1" xmlns="http://www.w3.org/2000/svg" xmlns:xlink="http://www.w3.org/1999/xlink" x="0px" y="0px"
	 viewBox="0 0 102.19 27.28" style="enable-background:new 0 0 102.19 27.28;" xml:space="preserve">
<style type="text/css">
	.st0{fill:#2A7A41;}
</style>
<g>
	<path class="st0" d="M21.47,14.19c-0.11,0.01-0.34,0.03-0.68,0.07l-1.7,0.15c-0.77,0.08-1.43,0.11-1.96,0.09l-2.64,0.07
		c0.66-1.29,1.68-3.17,3.07-5.62c1.76,0.05,3.23,0.14,4.4,0.29c0.45,0.06,0.88,0.09,1.27,0.09s0.83-0.06,1.3-0.19
		c1.59-0.39,2.81-1.15,3.66-2.28c1.06-1.42,1.58-2.48,1.58-3.17c0-0.52-0.38-0.78-1.14-0.78c-0.24,0-0.49,0.02-0.75,0.07L26.29,3.2
		c-0.25,0.03-1.75,0.11-4.51,0.22c-2.75,0.11-6.47,0.17-11.15,0.17c-1.12,0-2.16,0.13-3.1,0.39c-2.67,0.75-5.09,2.8-7.26,6.15
		C0.09,10.42,0,10.73,0,11.07S0.16,11.71,0.48,12c0.15,0.12,0.31,0.22,0.49,0.3c0.18,0.07,0.39,0.11,0.64,0.11s0.55-0.15,0.91-0.46
		s0.83-0.62,1.41-0.94c2.07-1.13,4.51-1.79,7.33-2c-0.78,1.12-2.05,3.04-3.8,5.76L6.03,14.8c-0.43,0.01-0.83,0.04-1.2,0.09
		c-0.37,0.05-0.72,0.22-1.06,0.51c-0.34,0.3-0.51,0.73-0.51,1.31c0,0.3,0.1,0.58,0.29,0.85s0.44,0.46,0.75,0.56
		c0.12,0.03,0.32,0.06,0.57,0.09s0.41,0.03,0.45,0.03L2.9,22.39c-0.3,0.55-0.53,1-0.71,1.37s-0.29,0.7-0.33,1
		c-0.05,0.3,0.03,0.61,0.22,0.94c0.58,0.98,1.91,1.47,4,1.47c2.53,0,3.99-0.75,4.38-2.25c0.5-1.98,1.19-4,2.06-6.08l5.2,0.41
		c0.25,0.02,0.51,0.03,0.78,0.03c1.43,0,2.45-0.24,3.07-0.73c0.28-0.23,0.54-0.63,0.77-1.21c0.1-0.26,0.18-0.54,0.24-0.83
		c0.06-0.29,0.09-0.64,0.09-1.05s-0.11-0.77-0.32-1.07C22.22,14.21,21.93,14.15,21.47,14.19z"/>
	<path class="st0" d="M101.42,14.16c-0.16,0-0.37,0.05-0.63,0.15c-0.92,0.34-1.85,0.93-2.79,1.77l-2.01,1.7
		c-1.57,1.26-2.65,1.89-3.25,1.89c-1.06,0-1.58-0.73-1.58-2.18c0-1.01,0.33-2.23,0.99-3.65c0.37-0.59,0.81-1.2,1.29-1.82l2.91-3.85
		c0.48-0.67,0.9-1.35,1.27-2.03c0.37-0.68,0.67-1.37,0.89-2.06c0.23-0.69,0.34-1.35,0.34-1.97s-0.41-1.18-1.23-1.7
		C97.17,0.14,96.55,0,95.78,0c-2.11,0-4.21,2-6.3,6.01c-1.18,1.99-2.25,4.5-3.22,7.55l-0.78,2.56c-0.62,0.53-1.45,1.12-2.49,1.77
		l-1.45,0.89c-1.64,0.97-2.73,1.45-3.27,1.45c-0.66,0-0.99-0.24-0.99-0.71s0.47-1.1,1.4-1.9c1.31-0.92,2.65-1.7,4.02-2.35
		c0.51-0.24,0.94-0.43,1.29-0.56c0.35-0.14,0.6-0.24,0.75-0.32c0.48-0.24,0.72-0.55,0.72-0.94c0-0.48-0.37-0.97-1.12-1.48
		c-0.32-0.2-0.64-0.37-0.96-0.5s-0.68-0.2-1.06-0.2s-1.31,0.27-2.76,0.8c-2.92,1.06-5.42,2.38-7.56,3.92l-0.12,0.07
		c-1.25,0.75-2.26,1.12-3.03,1.12c-1.04,0-1.57-0.31-1.57-0.92c0-0.16,0.03-0.33,0.1-0.51s0.1-0.44,0.1-0.77
		c0-1.11-0.36-2.03-1.09-2.74c-0.31-0.32-0.78-0.63-1.42-0.95c-0.64-0.31-1.37-0.47-2.19-0.47c-1.83,0-3.88,0.36-6.17,1.07
		c-1.08,0.34-2.29,0.82-3.62,1.45c-1.2,0.56-2.43,1.37-3.71,2.39l-0.58,0.32c-1.25,0.75-2.26,1.12-3.03,1.12
		c-1.04,0-1.57-0.31-1.57-0.92c0-0.16,0.03-0.33,0.1-0.51s0.1-0.44,0.1-0.77c0-1.11-0.36-2.03-1.09-2.74
		c-0.31-0.32-0.78-0.63-1.42-0.95c-0.64-0.31-1.37-0.47-2.19-0.47c-1.83,0-3.88,0.36-6.17,1.07c-1.08,0.34-2.29,0.82-3.62,1.45
		c-1.33,0.62-2.72,1.54-4.15,2.74c-1.94,1.65-2.91,3.38-2.91,5.2c0,1.26,0.45,2.5,1.35,3.73c1.11,1.51,2.63,2.27,4.55,2.27
		c1.83,0,3.97-0.61,6.42-1.84c2.31-1.16,4.07-2.43,5.28-3.82c0.22,0.15,0.44,0.29,0.66,0.43c0.74,0.42,1.73,0.63,2.96,0.63
		c0.65,0,1.33-0.14,2.04-0.41c0.17,0.92,0.59,1.84,1.25,2.74c1.11,1.51,2.63,2.27,4.55,2.27c1.83,0,3.97-0.61,6.42-1.84
		c2.31-1.16,4.07-2.43,5.28-3.82c0.22,0.15,0.44,0.29,0.66,0.43c0.74,0.42,1.73,0.63,2.96,0.63c0.56,0,1.15-0.1,1.76-0.3
		c0.18,1.05,0.59,1.99,1.25,2.81c1.03,1.25,2.41,1.87,4.12,1.87c2.06,0,5.17-1.44,9.34-4.33l1.52-1.09c0.25,1.27,0.57,2.24,0.97,2.9
		c0.66,1.09,1.64,1.64,2.93,1.64c1.72,0,3.99-1.11,6.81-3.32c2.37-1.87,3.94-3.34,4.7-4.4c1.09-1.51,1.64-2.68,1.64-3.51
		C102.19,14.42,101.93,14.16,101.42,14.16z M37.28,18.06c-1.04,0.85-2.21,1.56-3.51,2.11c-0.52,0.23-1.07,0.42-1.65,0.57
		s-1.13,0.07-1.65-0.25c-0.22-0.15-0.32-0.47-0.32-0.95v-0.02l0.02-0.05c0-0.19,0.14-0.46,0.41-0.8c0.85-1,2.13-1.97,3.83-2.91
		c1.54-0.85,2.77-1.28,3.68-1.28C37.36,15.3,37,16.12,37,16.93C37,17.32,37.1,17.7,37.28,18.06z M60.45,18.06
		c-1.04,0.85-2.21,1.56-3.51,2.11c-0.52,0.23-1.07,0.42-1.65,0.57s-1.13,0.07-1.65-0.25c-0.22-0.15-0.32-0.47-0.32-0.95v-0.02
		l0.02-0.05c0-0.19,0.14-0.46,0.41-0.8c0.85-1,2.13-1.97,3.83-2.91c1.54-0.85,2.77-1.28,3.68-1.28c-0.72,0.82-1.07,1.64-1.07,2.45
		C60.17,17.32,60.27,17.7,60.45,18.06z"/>
</g>
</svg>
