<?xml version="1.0" encoding="utf-8"?>
<!-- Generator: Adobe Illustrator 23.0.6, SVG Export Plug-In . SVG Version: 6.00 Build 0)  -->
<svg version="1.1" id="Layer_1" xmlns="http://www.w3.org/2000/svg" xmlns:xlink="http://www.w3.org/1999/xlink" x="0px" y="0px"
	 viewBox="0 0 23.79 23.79" style="enable-background:new 0 0 23.79 23.79;" xml:space="preserve">
<style type="text/css">
	.st0{fill:#2B7B40;}
</style>
<path class="st0" d="M11.89,0C5.33,0,0,5.33,0,11.89c0,6.57,5.33,11.89,11.89,11.89s11.89-5.33,11.89-11.89
	C23.79,5.33,18.46,0,11.89,0z M19.51,13.82L19.51,13.82c-0.66,0.66-1.74,0.66-2.4,0l-3.52-3.52v7.97c0,0.94-0.76,1.7-1.7,1.7
	s-1.7-0.76-1.7-1.7V10.3l-3.52,3.52c-0.66,0.66-1.74,0.66-2.4,0v0c-0.66-0.66-0.66-1.74,0-2.4l7.62-7.6l7.62,7.6
	C20.17,12.08,20.17,13.15,19.51,13.82z"/>
</svg>
